<svg width="238" height="59" viewBox="0 0 238 59" fill="none" xmlns="http://www.w3.org/2000/svg">
<mask id="mask0_227_10" style="mask-type:luminance" maskUnits="userSpaceOnUse" x="0" y="0" width="62" height="59">
<path d="M61.9535 0H0.613281V59H61.9535V0Z" fill="white"/>
</mask>
<g mask="url(#mask0_227_10)">
<mask id="mask1_227_10" style="mask-type:luminance" maskUnits="userSpaceOnUse" x="0" y="0" width="62" height="59">
<path d="M2.71018 0.149181C1.69183 0.529455 1.02093 1.20934 0.733393 2.14274C0.637549 2.46539 0.613587 6.12984 0.637549 15.4407C0.673491 29.2689 0.637549 28.5084 1.23658 29.2919C1.35638 29.4648 1.35638 29.534 1.23658 29.6953C1.15271 29.8105 0.996963 30.087 0.877158 30.306C0.68547 30.6863 0.673491 31.6197 0.673491 43.7885C0.673491 56.4988 0.68547 56.879 0.901119 57.3169C1.20063 57.8931 1.76371 58.4347 2.36275 58.7228C2.818 58.9302 3.21335 58.9418 16.4279 58.9418C29.0793 58.9418 30.0497 58.9302 30.4451 58.7459C30.6727 58.6306 30.9602 58.4808 31.0801 58.4002C31.2478 58.2849 31.3197 58.2849 31.4993 58.4002C31.6071 58.4808 31.8947 58.6306 32.1224 58.7459C32.5177 58.9302 33.4881 58.9418 46.1395 58.9418C59.354 58.9418 59.7494 58.9302 60.2047 58.7228C60.8037 58.4347 61.3667 57.8931 61.6663 57.3169C61.8819 56.879 61.8938 56.4988 61.8938 43.7885C61.8938 31.6197 61.8819 30.6863 61.6902 30.306C61.5705 30.087 61.4147 29.8105 61.3307 29.7068C61.211 29.534 61.211 29.4648 61.3307 29.2919C61.4147 29.1882 61.5705 28.9117 61.6902 28.6927C61.8819 28.3124 61.8938 27.379 61.8938 15.2103C61.8938 2.49996 61.8819 2.11969 61.6663 1.6818C61.3667 1.10563 60.8037 0.564025 60.2047 0.275939C59.7494 0.0685171 59.354 0.0569936 46.1395 0.0569936C33.4881 0.0569936 32.5177 0.0685171 32.1224 0.252892C31.8947 0.368126 31.6071 0.517931 31.4993 0.598595C31.3197 0.71383 31.2478 0.71383 31.0801 0.598595C30.9602 0.517931 30.6727 0.368126 30.4451 0.252892C30.0617 0.0685171 29.0554 0.0569936 16.5476 0.0339468C6.42413 0.0224232 2.97374 0.0454702 2.71018 0.149181ZM29.9898 2.16579L30.2654 2.43083L30.3252 7.40895C30.3971 12.9632 30.3612 12.7789 31.2597 13.3665C31.6551 13.6431 31.7868 13.6547 33.3085 13.6547C34.207 13.6547 35.0816 13.6201 35.2493 13.574C35.417 13.5278 35.9202 13.1822 36.3634 12.8019C37.274 12.0298 37.9449 11.7533 38.9513 11.7533C39.9217 11.7533 40.6525 12.0298 41.3953 12.6867C42.2338 13.4127 42.5694 14.1502 42.5694 15.2334C42.5694 16.6853 41.7546 17.8377 40.3169 18.4484C39.8498 18.6558 39.5861 18.6903 38.7834 18.6443C37.6573 18.5867 37.2979 18.4369 36.3755 17.6302C35.4768 16.8466 35.333 16.789 34.0272 16.7314C32.302 16.6507 31.5952 16.766 31.0801 17.2039C30.3133 17.8492 30.3252 17.7801 30.3252 23.4495V28.5776H25.1138H19.9022V27.4482C19.9022 26.3305 19.9022 26.3074 20.2737 25.9732C21.4357 24.9361 22.0108 23.4611 21.9149 21.7441C21.867 20.8107 21.7951 20.5457 21.4238 19.8082C20.1058 17.1808 16.8112 16.0515 14.0557 17.2845C13.2171 17.6648 12.1149 18.5982 11.6836 19.3127C10.3897 21.4445 10.7491 24.2562 12.5222 25.9156L12.9536 26.3189V27.4482V28.589L8.0415 28.5544L3.14147 28.5199L2.86592 28.2548L2.59037 27.9898L2.56641 15.3486C2.54245 5.35778 2.56641 2.64976 2.68622 2.4193C2.9977 1.82008 2.48254 1.84313 16.5717 1.8777L29.7143 1.90075L29.9898 2.16579ZM59.7014 2.16579L59.977 2.43083V15.2103V27.9898L59.7014 28.2548L59.4259 28.5199L54.2504 28.5776C48.4757 28.6466 48.6674 28.612 48.0564 29.4764C47.7689 29.8566 47.7569 29.9834 47.7569 31.4468C47.7569 32.3111 47.7928 33.1523 47.8408 33.3136C47.8887 33.4749 48.2242 33.9359 48.5955 34.3277C49.5061 35.3072 49.6499 35.6183 49.7097 36.7131C49.7577 37.5427 49.7217 37.7386 49.4701 38.2802C48.4038 40.5157 45.4687 41.0689 43.6356 39.3749C42.9288 38.7181 42.5454 37.8769 42.5454 36.9435C42.5454 35.9294 42.821 35.2726 43.5637 34.4544C43.9231 34.0742 44.2826 33.6478 44.3545 33.5095C44.5341 33.1869 44.6419 31.251 44.5222 30.3752C44.4623 29.8681 44.3545 29.6147 44.0669 29.3035C43.396 28.566 43.4679 28.5776 37.5734 28.5776H32.2421V23.5648V18.5522H33.4162C34.5783 18.5522 34.6022 18.5522 34.9497 18.9093C36.028 20.0272 37.5615 20.5802 39.3465 20.4881C40.3169 20.4419 40.5926 20.3728 41.3594 20.0156C44.0908 18.748 45.265 15.579 43.983 12.9286C43.5877 12.122 42.6172 11.0619 41.8745 10.647C39.658 9.4025 36.7348 9.74821 35.0097 11.4537L34.5903 11.8685H33.4162H32.2421V7.2822C32.2421 2.39625 32.2541 2.28101 32.8412 1.99293C33.0808 1.8777 35.8962 1.85466 46.2833 1.8777L59.4259 1.90075L59.7014 2.16579ZM18.0692 19.0245C18.8838 19.4048 19.387 19.9234 19.7943 20.8107C20.01 21.2601 20.046 21.5136 19.998 22.2857C19.9381 23.3689 19.7824 23.7147 18.9438 24.6019C18.1291 25.4661 18.0692 25.6044 18.0093 26.8605C17.9254 28.5199 18.0452 29.1998 18.5004 29.6953C19.1714 30.4328 19.0995 30.4212 24.9939 30.4212H30.3252V35.434V40.4466H29.1512H27.9771L27.5578 40.0318C25.8326 38.3264 22.9093 37.9806 20.693 39.2252C20.4173 39.3749 19.9142 39.7898 19.5668 40.147C17.566 42.1867 17.566 45.3902 19.5668 47.4298C20.681 48.5591 21.9628 49.0893 23.6162 49.0893C25.1616 49.0893 26.5513 48.5361 27.5578 47.5451L27.9771 47.1302H29.1512H30.3373L30.3013 51.8548L30.2654 56.568L29.9898 56.833L29.7143 57.098H16.4279H3.14147L2.86592 56.833L2.59037 56.568V43.7885V31.009L2.86592 30.7439L3.14147 30.4789L8.31705 30.4212C14.0917 30.3522 13.8999 30.3867 14.511 29.5224C14.7986 29.1422 14.8105 29.0153 14.8105 27.5519C14.8105 26.6877 14.7745 25.8465 14.7267 25.6851C14.6787 25.5238 14.3192 25.0398 13.924 24.6135C13.1213 23.7377 12.8337 23.0923 12.8337 22.1244C12.8337 21.214 13.1213 20.4995 13.7563 19.8197C14.9303 18.5636 16.4518 18.287 18.0692 19.0245ZM42.6652 31.5506V32.6798L42.2338 33.0832C40.4488 34.7426 40.1014 37.5543 41.4072 39.6976C41.7667 40.2969 42.8808 41.2994 43.5518 41.622C45.0972 42.3826 46.9422 42.4172 48.5116 41.7143C49.3623 41.334 50.4526 40.4006 50.8958 39.6631C52.1777 37.5657 51.8063 34.7195 50.0451 33.0832L49.6139 32.6798V31.5506V30.4097L54.5259 30.4443L59.4259 30.4789L59.7014 30.7439L59.977 31.009V43.7885V56.568L59.7014 56.833L59.4259 57.098H46.1395H32.8532L32.5776 56.833L32.302 56.568L32.2421 51.5898C32.1702 46.0355 32.2062 46.2199 31.3077 45.6322C30.9123 45.3556 30.7805 45.3441 29.259 45.3441C28.3605 45.3441 27.4859 45.3786 27.3181 45.4248C27.1504 45.4709 26.6712 45.7935 26.2639 46.1507C25.2455 47.0265 24.922 47.1648 23.7839 47.2224C22.9213 47.2685 22.7176 47.234 22.1546 46.9919C19.8303 45.9664 19.2553 43.1431 21.0164 41.3801C21.6993 40.7002 22.5739 40.3314 23.5443 40.3314C24.5985 40.3314 25.2815 40.5965 26.132 41.3109C26.5274 41.6566 26.9707 42.0023 27.1144 42.0715C27.45 42.2443 29.4627 42.348 30.3732 42.2328C30.9004 42.1752 31.1639 42.0714 31.4874 41.7949C32.2541 41.1495 32.2421 41.2187 32.2421 35.5492V30.4212H37.4537H42.6652V31.5506Z" fill="white"/>
</mask>
<g mask="url(#mask1_227_10)">
<path d="M2.71018 0.149181C1.69183 0.529455 1.02093 1.20934 0.733393 2.14274C0.637549 2.46539 0.613587 6.12984 0.637549 15.4407C0.673491 29.2689 0.637549 28.5084 1.23658 29.2919C1.35638 29.4648 1.35638 29.534 1.23658 29.6953C1.15271 29.8105 0.996963 30.087 0.877158 30.306C0.68547 30.6863 0.673491 31.6197 0.673491 43.7885C0.673491 56.4988 0.68547 56.879 0.901119 57.3169C1.20063 57.8931 1.76371 58.4347 2.36275 58.7228C2.818 58.9302 3.21335 58.9418 16.4279 58.9418C29.0793 58.9418 30.0497 58.9302 30.4451 58.7459C30.6727 58.6306 30.9602 58.4808 31.0801 58.4002C31.2478 58.2849 31.3197 58.2849 31.4993 58.4002C31.6071 58.4808 31.8947 58.6306 32.1224 58.7459C32.5177 58.9302 33.4881 58.9418 46.1395 58.9418C59.354 58.9418 59.7494 58.9302 60.2047 58.7228C60.8037 58.4347 61.3667 57.8931 61.6663 57.3169C61.8819 56.879 61.8938 56.4988 61.8938 43.7885C61.8938 31.6197 61.8819 30.6863 61.6902 30.306C61.5705 30.087 61.4147 29.8105 61.3307 29.7068C61.211 29.534 61.211 29.4648 61.3307 29.2919C61.4147 29.1882 61.5705 28.9117 61.6902 28.6927C61.8819 28.3124 61.8938 27.379 61.8938 15.2103C61.8938 2.49996 61.8819 2.11969 61.6663 1.6818C61.3667 1.10563 60.8037 0.564025 60.2047 0.275939C59.7494 0.0685171 59.354 0.0569936 46.1395 0.0569936C33.4881 0.0569936 32.5177 0.0685171 32.1224 0.252892C31.8947 0.368126 31.6071 0.517931 31.4993 0.598595C31.3197 0.71383 31.2478 0.71383 31.0801 0.598595C30.9602 0.517931 30.6727 0.368126 30.4451 0.252892C30.0617 0.0685171 29.0554 0.0569936 16.5476 0.0339468C6.42413 0.0224232 2.97374 0.0454702 2.71018 0.149181ZM29.9898 2.16579L30.2654 2.43083L30.3252 7.40895C30.3971 12.9632 30.3612 12.7789 31.2597 13.3665C31.6551 13.6431 31.7868 13.6547 33.3085 13.6547C34.207 13.6547 35.0816 13.6201 35.2493 13.574C35.417 13.5278 35.9202 13.1822 36.3634 12.8019C37.274 12.0298 37.9449 11.7533 38.9513 11.7533C39.9217 11.7533 40.6525 12.0298 41.3953 12.6867C42.2338 13.4127 42.5694 14.1502 42.5694 15.2334C42.5694 16.6853 41.7546 17.8377 40.3169 18.4484C39.8498 18.6558 39.5861 18.6903 38.7834 18.6443C37.6573 18.5867 37.2979 18.4369 36.3755 17.6302C35.4768 16.8466 35.333 16.789 34.0272 16.7314C32.302 16.6507 31.5952 16.766 31.0801 17.2039C30.3133 17.8492 30.3252 17.7801 30.3252 23.4495V28.5776H25.1138H19.9022V27.4482C19.9022 26.3305 19.9022 26.3074 20.2737 25.9732C21.4357 24.9361 22.0108 23.4611 21.9149 21.7441C21.867 20.8107 21.7951 20.5457 21.4238 19.8082C20.1058 17.1808 16.8112 16.0515 14.0557 17.2845C13.2171 17.6648 12.1149 18.5982 11.6836 19.3127C10.3897 21.4445 10.7491 24.2562 12.5222 25.9156L12.9536 26.3189V27.4482V28.589L8.0415 28.5544L3.14147 28.5199L2.86592 28.2548L2.59037 27.9898L2.56641 15.3486C2.54245 5.35778 2.56641 2.64976 2.68622 2.4193C2.9977 1.82008 2.48254 1.84313 16.5717 1.8777L29.7143 1.90075L29.9898 2.16579ZM59.7014 2.16579L59.977 2.43083V15.2103V27.9898L59.7014 28.2548L59.4259 28.5199L54.2504 28.5776C48.4757 28.6466 48.6674 28.612 48.0564 29.4764C47.7689 29.8566 47.7569 29.9834 47.7569 31.4468C47.7569 32.3111 47.7928 33.1523 47.8408 33.3136C47.8887 33.4749 48.2242 33.9359 48.5955 34.3277C49.5061 35.3072 49.6499 35.6183 49.7097 36.7131C49.7577 37.5427 49.7217 37.7386 49.4701 38.2802C48.4038 40.5157 45.4687 41.0689 43.6356 39.3749C42.9288 38.7181 42.5454 37.8769 42.5454 36.9435C42.5454 35.9294 42.821 35.2726 43.5637 34.4544C43.9231 34.0742 44.2826 33.6478 44.3545 33.5095C44.5341 33.1869 44.6419 31.251 44.5222 30.3752C44.4623 29.8681 44.3545 29.6147 44.0669 29.3035C43.396 28.566 43.4679 28.5776 37.5734 28.5776H32.2421V23.5648V18.5522H33.4162C34.5783 18.5522 34.6022 18.5522 34.9497 18.9093C36.028 20.0272 37.5615 20.5802 39.3465 20.4881C40.3169 20.4419 40.5926 20.3728 41.3594 20.0156C44.0908 18.748 45.265 15.579 43.983 12.9286C43.5877 12.122 42.6172 11.0619 41.8745 10.647C39.658 9.4025 36.7348 9.74821 35.0097 11.4537L34.5903 11.8685H33.4162H32.2421V7.2822C32.2421 2.39625 32.2541 2.28101 32.8412 1.99293C33.0808 1.8777 35.8962 1.85466 46.2833 1.8777L59.4259 1.90075L59.7014 2.16579ZM18.0692 19.0245C18.8838 19.4048 19.387 19.9234 19.7943 20.8107C20.01 21.2601 20.046 21.5136 19.998 22.2857C19.9381 23.3689 19.7824 23.7147 18.9438 24.6019C18.1291 25.4661 18.0692 25.6044 18.0093 26.8605C17.9254 28.5199 18.0452 29.1998 18.5004 29.6953C19.1714 30.4328 19.0995 30.4212 24.9939 30.4212H30.3252V35.434V40.4466H29.1512H27.9771L27.5578 40.0318C25.8326 38.3264 22.9093 37.9806 20.693 39.2252C20.4173 39.3749 19.9142 39.7898 19.5668 40.147C17.566 42.1867 17.566 45.3902 19.5668 47.4298C20.681 48.5591 21.9628 49.0893 23.6162 49.0893C25.1616 49.0893 26.5513 48.5361 27.5578 47.5451L27.9771 47.1302H29.1512H30.3373L30.3013 51.8548L30.2654 56.568L29.9898 56.833L29.7143 57.098H16.4279H3.14147L2.86592 56.833L2.59037 56.568V43.7885V31.009L2.86592 30.7439L3.14147 30.4789L8.31705 30.4212C14.0917 30.3522 13.8999 30.3867 14.511 29.5224C14.7986 29.1422 14.8105 29.0153 14.8105 27.5519C14.8105 26.6877 14.7745 25.8465 14.7267 25.6851C14.6787 25.5238 14.3192 25.0398 13.924 24.6135C13.1213 23.7377 12.8337 23.0923 12.8337 22.1244C12.8337 21.214 13.1213 20.4995 13.7563 19.8197C14.9303 18.5636 16.4518 18.287 18.0692 19.0245ZM42.6652 31.5506V32.6798L42.2338 33.0832C40.4488 34.7426 40.1014 37.5543 41.4072 39.6976C41.7667 40.2969 42.8808 41.2994 43.5518 41.622C45.0972 42.3826 46.9422 42.4172 48.5116 41.7143C49.3623 41.334 50.4526 40.4006 50.8958 39.6631C52.1777 37.5657 51.8063 34.7195 50.0451 33.0832L49.6139 32.6798V31.5506V30.4097L54.5259 30.4443L59.4259 30.4789L59.7014 30.7439L59.977 31.009V43.7885V56.568L59.7014 56.833L59.4259 57.098H46.1395H32.8532L32.5776 56.833L32.302 56.568L32.2421 51.5898C32.1702 46.0355 32.2062 46.2199 31.3077 45.6322C30.9123 45.3556 30.7805 45.3441 29.259 45.3441C28.3605 45.3441 27.4859 45.3786 27.3181 45.4248C27.1504 45.4709 26.6712 45.7935 26.2639 46.1507C25.2455 47.0265 24.922 47.1648 23.7839 47.2224C22.9213 47.2685 22.7176 47.234 22.1546 46.9919C19.8303 45.9664 19.2553 43.1431 21.0164 41.3801C21.6993 40.7002 22.5739 40.3314 23.5443 40.3314C24.5985 40.3314 25.2815 40.5965 26.132 41.3109C26.5274 41.6566 26.9707 42.0023 27.1144 42.0715C27.45 42.2443 29.4627 42.348 30.3732 42.2328C30.9004 42.1752 31.1639 42.0714 31.4874 41.7949C32.2541 41.1495 32.2421 41.2187 32.2421 35.5492V30.4212H37.4537H42.6652V31.5506Z" fill="#1E4DC2" stroke="#1E4DC2" stroke-width="2"/>
</g>
</g>
<path d="M87.0314 23.8358C85.2811 23.8358 83.7027 23.4738 82.2959 22.7501C80.8891 22.0106 79.785 20.9958 78.9835 19.7058C78.182 18.3998 77.7812 16.9445 77.7812 15.3397C77.7812 13.7349 78.182 12.2874 78.9835 10.9973C79.785 9.69148 80.8891 8.67668 82.2959 7.95295C83.7027 7.21348 85.2811 6.84375 87.0314 6.84375C88.7816 6.84375 90.36 7.21348 91.7668 7.95295C93.1736 8.67668 94.2777 9.68362 95.0792 10.9737C95.8807 12.2638 96.2815 13.7193 96.2815 15.3397C96.2815 16.9602 95.8807 18.4157 95.0792 19.7058C94.2777 20.9958 93.1736 22.0106 91.7668 22.7501C90.36 23.4738 88.7816 23.8358 87.0314 23.8358ZM87.0314 21.1453C88.1763 21.1453 89.2068 20.9014 90.1229 20.4137C91.0389 19.9102 91.7586 19.2181 92.2821 18.3369C92.8056 17.4401 93.0672 16.441 93.0672 15.3397C93.0672 14.2385 92.8056 13.2473 92.2821 12.3661C91.7586 11.4693 91.0389 10.7771 90.1229 10.2894C89.2068 9.78588 88.1763 9.53415 87.0314 9.53415C85.8864 9.53415 84.8559 9.78588 83.9398 10.2894C83.0237 10.7771 82.3041 11.4693 81.7806 12.3661C81.2572 13.2473 80.9955 14.2385 80.9955 15.3397C80.9955 16.441 81.2572 17.4401 81.7806 18.3369C82.3041 19.2181 83.0237 19.9102 83.9398 20.4137C84.8559 20.9014 85.8864 21.1453 87.0314 21.1453ZM111.861 11.1861C110.242 10.3051 108.557 9.77015 106.806 9.58135V23.5997H103.617V9.58135C101.85 9.77015 100.157 10.3051 98.5378 11.1861L97.4337 8.82615C98.5788 8.16535 99.8056 7.66975 101.114 7.33935C102.439 7.00895 103.797 6.84375 105.187 6.84375C106.578 6.84375 107.935 7.00895 109.26 7.33935C110.585 7.66975 111.82 8.16535 112.965 8.82615L111.861 11.1861ZM121.976 16.6377H118.787V23.5997H115.646V7.07975H118.787V13.9945H122.075L127.007 7.07975H130.393L124.529 15.0801L130.614 23.5997H127.007L121.976 16.6377ZM139.888 6.93815C142.212 6.93815 144.027 7.50455 145.335 8.63735C146.644 9.75442 147.298 11.312 147.298 13.3101C147.298 15.2297 146.702 16.7401 145.507 17.8413C144.313 18.9269 142.661 19.4697 140.551 19.4697C139.734 19.4697 138.948 19.3833 138.195 19.2101C137.443 19.037 136.625 18.7461 135.742 18.3369V23.5997H132.601V13.7113C132.601 11.5401 133.232 9.87242 134.49 8.70815C135.75 7.52815 137.55 6.93815 139.888 6.93815ZM139.986 17.0625C141.279 17.0625 142.285 16.7401 143.004 16.0949C143.74 15.4498 144.108 14.5453 144.108 13.3809C144.108 12.2009 143.74 11.2805 143.004 10.6197C142.268 9.94322 141.255 9.60495 139.962 9.60495C138.637 9.60495 137.599 9.95895 136.846 10.6669C136.11 11.3749 135.742 12.3741 135.742 13.6641V15.6701C136.33 16.1265 136.986 16.4725 137.704 16.7085C138.441 16.9445 139.201 17.0625 139.986 17.0625ZM158.315 12.1537C159.591 12.1537 160.711 12.3818 161.676 12.8381C162.658 13.2945 163.418 13.963 163.958 14.8441C164.514 15.7094 164.792 16.7478 164.792 17.9593C164.792 19.8317 164.137 21.2949 162.829 22.3489C161.536 23.3874 159.705 23.9065 157.333 23.9065C154.978 23.9065 153.178 23.3874 151.935 22.3489C150.709 21.2949 150.095 19.7686 150.095 17.7705V7.07975H153.236V13.3337C154.985 12.547 156.678 12.1537 158.315 12.1537ZM170.362 7.07975V23.5997H167.221V7.07975H170.362ZM157.456 21.4049C158.748 21.4049 159.754 21.1061 160.474 20.5081C161.21 19.9102 161.578 19.0921 161.578 18.0537C161.578 16.9681 161.193 16.1185 160.425 15.5049C159.656 14.8913 158.674 14.5845 157.481 14.5845C156.776 14.5845 156.057 14.7025 155.321 14.9385C154.585 15.1745 153.89 15.5206 153.236 15.9769V17.6761C153.236 18.8718 153.604 19.7922 154.34 20.4373C155.076 21.0825 156.114 21.4049 157.456 21.4049ZM187.482 11.1861C185.863 10.3051 184.178 9.77015 182.428 9.58135V23.5997H179.238V9.58135C177.471 9.77015 175.778 10.3051 174.159 11.1861L173.055 8.82615C174.199 8.16535 175.426 7.66975 176.735 7.33935C178.06 7.00895 179.418 6.84375 180.808 6.84375C182.198 6.84375 183.556 7.00895 184.881 7.33935C186.206 7.66975 187.442 8.16535 188.586 8.82615L187.482 11.1861ZM199.167 12.1537C200.443 12.1537 201.565 12.3818 202.529 12.8381C203.51 13.2945 204.271 13.963 204.811 14.8441C205.368 15.7094 205.645 16.7478 205.645 17.9593C205.645 19.8317 204.991 21.2949 203.682 22.3489C202.39 23.3874 200.559 23.9065 198.186 23.9065C195.83 23.9065 194.032 23.3874 192.788 22.3489C191.561 21.2949 190.948 19.7686 190.948 17.7705V7.07975H194.088V13.3337C195.839 12.547 197.532 12.1537 199.167 12.1537ZM211.215 7.07975V23.5997H208.074V7.07975H211.215ZM198.309 21.4049C199.602 21.4049 200.608 21.1061 201.327 20.5081C202.063 19.9102 202.431 19.0921 202.431 18.0537C202.431 16.9681 202.047 16.1185 201.277 15.5049C200.509 14.8913 199.528 14.5845 198.333 14.5845C197.63 14.5845 196.91 14.7025 196.174 14.9385C195.438 15.1745 194.744 15.5206 194.088 15.9769V17.6761C194.088 18.8718 194.456 19.7922 195.193 20.4373C195.929 21.0825 196.968 21.4049 198.309 21.4049ZM229.342 22.0185C228.573 22.6006 227.583 23.049 226.373 23.3637C225.162 23.6785 223.853 23.8358 222.447 23.8358C220.795 23.8358 219.388 23.6313 218.227 23.2221C217.081 22.813 216.215 22.2466 215.626 21.5229C215.037 20.7993 214.743 19.9654 214.743 19.0213C214.743 18.1089 215.004 17.3142 215.528 16.6377C216.051 15.9613 216.755 15.4657 217.638 15.1509C216.967 14.8049 216.436 14.3249 216.043 13.7113C215.667 13.0821 215.479 12.3818 215.479 11.6109C215.479 10.7299 215.749 9.93535 216.289 9.22735C216.844 8.50362 217.67 7.92935 218.767 7.50455C219.862 7.06402 221.212 6.84375 222.815 6.84375C223.895 6.84375 224.95 6.95388 225.98 7.17415C227.011 7.39442 227.91 7.69335 228.679 8.07095L227.772 10.5017C226.331 9.77802 224.72 9.41615 222.938 9.41615C221.531 9.41615 220.467 9.63642 219.748 10.0769C219.044 10.5017 218.693 11.076 218.693 11.7997C218.693 12.5077 218.954 13.0505 219.478 13.4281C220.001 13.7901 220.77 13.9709 221.785 13.9709H226.324V16.5197H221.613C220.451 16.5197 219.552 16.7165 218.914 17.1097C218.276 17.4873 217.957 18.0537 217.957 18.8089C217.957 19.5641 218.341 20.1621 219.11 20.6025C219.878 21.043 221.04 21.2633 222.594 21.2633C223.674 21.2633 224.72 21.1217 225.735 20.8385C226.766 20.5553 227.624 20.1621 228.311 19.6585L229.342 22.0185ZM93.8278 35.3997V51.9198H90.7608V49.8194C89.5994 51.3769 87.8002 52.1558 85.3629 52.1558C83.3346 52.1558 81.7398 51.5501 80.5784 50.3386C79.4169 49.1113 78.8363 47.3806 78.8363 45.1465V35.3997H82.026V45.0285C82.026 46.4917 82.3858 47.6009 83.1056 48.3561C83.8417 49.0957 84.8476 49.4653 86.1235 49.4653C87.4975 49.4653 88.5934 49.0721 89.4113 48.2853C90.2293 47.4829 90.6382 46.295 90.6382 44.7218V35.3997H93.8278ZM116.229 49.3237V55.4361H113.284V51.9198H99.7403L99.7158 55.4361H96.7714L96.796 49.3237H98.8815V42.5506C98.8815 40.9773 99.1923 39.6398 99.8139 38.5385C100.452 37.4373 101.343 36.6034 102.488 36.037C103.633 35.4549 104.966 35.1637 106.488 35.1637C108.025 35.1637 109.367 35.447 110.512 36.0133C111.657 36.5798 112.54 37.4214 113.162 38.5385C113.799 39.6398 114.118 40.9773 114.118 42.5506V49.3237H116.229ZM110.929 49.3237V42.2673C110.929 40.8198 110.536 39.7265 109.751 38.9869C108.966 38.2318 107.878 37.8542 106.488 37.8542C105.097 37.8542 104.01 38.2318 103.224 38.9869C102.456 39.7265 102.071 40.8198 102.071 42.2673V49.3237H110.929ZM132.563 50.3386C131.794 50.9206 130.805 51.369 129.594 51.6837C128.383 51.9985 127.075 52.1558 125.668 52.1558C124.016 52.1558 122.609 51.9513 121.448 51.5421C120.303 51.133 119.436 50.5666 118.847 49.843C118.258 49.1193 117.964 48.2853 117.964 47.3413C117.964 46.4289 118.226 45.6342 118.749 44.9577C119.272 44.2813 119.976 43.7857 120.859 43.471C120.188 43.1249 119.657 42.6449 119.264 42.0313C118.888 41.4021 118.7 40.7018 118.7 39.931C118.7 39.0498 118.97 38.2554 119.51 37.5473C120.066 36.8237 120.892 36.2493 121.988 35.8246C123.083 35.3841 124.433 35.1637 126.036 35.1637C127.116 35.1637 128.171 35.2738 129.202 35.4941C130.232 35.7145 131.131 36.0133 131.9 36.3909L130.993 38.8218C129.554 38.0981 127.942 37.7361 126.159 37.7361C124.752 37.7361 123.689 37.9565 122.969 38.3969C122.266 38.8218 121.914 39.3961 121.914 40.1198C121.914 40.8278 122.176 41.3706 122.699 41.7481C123.223 42.1101 123.991 42.291 125.006 42.291H129.545V44.8397H124.834C123.672 44.8397 122.773 45.0365 122.135 45.4297C121.497 45.8074 121.178 46.3737 121.178 47.1289C121.178 47.8841 121.562 48.4821 122.331 48.9225C123.101 49.363 124.261 49.5834 125.816 49.5834C126.895 49.5834 127.942 49.4417 128.956 49.1586C129.987 48.8753 130.845 48.4821 131.532 47.9785L132.563 50.3386ZM150.088 35.3997V51.9198H147.021V49.8194C145.86 51.3769 144.061 52.1558 141.623 52.1558C139.595 52.1558 138 51.5501 136.838 50.3386C135.678 49.1113 135.096 47.3806 135.096 45.1465V35.3997H138.286V45.0285C138.286 46.4917 138.647 47.6009 139.366 48.3561C140.102 49.0957 141.108 49.4653 142.384 49.4653C143.758 49.4653 144.854 49.0721 145.671 48.2853C146.49 47.4829 146.898 46.295 146.898 44.7218V35.3997H150.088Z" fill="#1E4DC2"/>
</svg>
